<?xml version="1.0" encoding="iso-8859-1"?>
<!-- Uploaded to: SVG Repo, www.svgrepo.com, Generator: SVG Repo Mixer Tools -->
<svg version="1.1" id="Layer_1" xmlns="http://www.w3.org/2000/svg" xmlns:xlink="http://www.w3.org/1999/xlink" 
	 viewBox="0 0 496.314 496.314" xml:space="preserve">
<path style="fill:#CC9966;" d="M272.157,456.314v-16h-16v16H272.157z M240.157,440.314h-32v-32h80v40c0,1.6,0.8,4,1.6,4.8l21.6,27.2
	h-126.4l19.2-24h36V440.314z"/>
<g>
	<path style="fill:#E94545;" d="M448.157,48.314v232h-115.2l84.8-16c4-0.8,6.4-4,6.4-8v-208H448.157z"/>
	<path style="fill:#E94545;" d="M166.557,277.114l-118.4-4.8v-224h24v200c0,4,2.4,7.2,6.4,8L166.557,277.114z"/>
</g>
<g>
	<path style="fill:#FFF8EF;" d="M88.157,241.914v-193.6v-16v-14.4l152,28.8v231.2L88.157,241.914z M110.557,128.314l96,24l4-15.2
		l-96-24L110.557,128.314z M110.557,64.314l96,24l4-15.2l-96-24L110.557,64.314z M217.757,200.314l-96-24l-3.2,16l96,24
		L217.757,200.314z"/>
	<path style="fill:#FFF8EF;" d="M278.557,200.314l4,15.2l96-24l-4-15.2L278.557,200.314z M385.757,128.314l-3.2-16l-96,24l4,15.2
		L385.757,128.314z M385.757,64.314l-3.2-16l-96,24l4,15.2L385.757,64.314z M408.157,48.314v201.6l-152,28.8v-232l152-28.8v14.4
		V48.314z"/>
</g>
<path style="fill:#E4C6A1;" d="M456.157,296.314c4,0,8-4,8-8v-184h16v208h-464v-208h16v176c0,4,3.2,8,8,8l208,8l0,0H456.157z"/>
<path style="fill:#CC9966;" d="M248.157,328.314h-232v64h184h48h48h184v-64H248.157z M248.157,384.314c-13.6,0-24-11.2-24-24
	c0-13.6,10.4-24,24-24s24,10.4,24,24C272.157,373.114,261.757,384.314,248.157,384.314z"/>
<g>
	<polygon style="fill:#42210B;" points="382.557,48.314 385.757,64.314 289.757,88.314 286.557,72.314 	"/>
	<polygon style="fill:#42210B;" points="382.557,112.314 385.757,128.314 289.757,152.314 286.557,136.314 	"/>
	<polygon style="fill:#42210B;" points="374.557,176.314 377.757,192.314 281.757,216.314 278.557,200.314 	"/>
	<rect x="256.157" y="440.314" style="fill:#42210B;" width="16" height="16"/>
	<path style="fill:#42210B;" d="M248.157,384.314c-12.8,0-24-10.4-24-24s11.2-24,24-24c13.6,0,24,10.4,24,24
		S261.757,384.314,248.157,384.314z M240.157,360.314c0,4,4,8,8,8s8-4,8-8s-4-8-8-8S240.157,356.314,240.157,360.314z"/>
	<polygon style="fill:#42210B;" points="217.757,200.314 214.557,216.314 118.557,192.314 121.757,176.314 	"/>
	<polygon style="fill:#42210B;" points="209.757,72.314 206.557,88.314 110.557,64.314 113.757,48.314 	"/>
	<polygon style="fill:#42210B;" points="209.757,136.314 206.557,152.314 110.557,128.314 113.757,112.314 	"/>
	<path style="fill:#42210B;" d="M166.557,277.114l-88-20.8c-4-0.8-6.4-4-6.4-8v-200h-24v224L166.557,277.114z M208.157,408.314v32
		h32v16h-36l-19.2,24h126.4l-21.6-27.2c-0.8-0.8-1.6-3.2-1.6-4.8v-40H208.157z M240.157,277.914v-231.2l-152-28.8v14.4v16v193.6
		L240.157,277.914z M408.157,249.914v-201.6v-16v-14.4l-152,28.8v232L408.157,249.914z M448.157,280.314v-232h-24v208
		c0,4-2.4,7.2-6.4,8l-84.8,16H448.157z M480.157,312.314v-208h-16v184c0,4-4,8-8,8h-208l0,0l-208-8c-4,0-8-4-8-8v-176h-16v208
		H480.157z M480.157,392.314v-64h-232h-232v64h184h48h48H480.157z M496.157,96.314v304c0,4-4,8-8,8h-184v37.6l30.4,37.6
		c1.6,2.4,2.4,5.6,0.8,8c-1.6,3.2-4,4.8-7.2,4.8h-160c-3.2,0-5.6-1.6-7.2-4.8c-1.6-2.4-0.8-6.4,0.8-8l30.4-37.6v-37.6h-184
		c-4,0-8-4-8-8v-304c0-4.8,4-8,8-8h24v-48c0-4.8,3.2-8,8-8h32v-24c0-2.4,0.8-4.8,3.2-6.4c1.6-1.6,4-2.4,6.4-1.6l167.2,32l165.6-32
		c2.4-0.8,4.8,0,6.4,1.6s3.2,4,3.2,6.4v24h32c4,0,8,3.2,8,8v48h24C492.157,88.314,496.157,91.514,496.157,96.314z"/>
</g>
<g>
	<path style="fill:#B37D4D;" d="M24.157,328.314v38.4c0,9.6,8,17.6,17.6,17.6h413.6c9.6,0,17.6-8,17.6-17.6v-38.4h8v64h-464.8v-64
		H24.157z"/>
	<path style="fill:#B37D4D;" d="M288.157,408.314l-65.6,7.2c-4,0.8-7.2,3.2-8,6.4l-6.4,18.4v-32H288.157z"/>
</g>
<g>
	<path style="fill:#D9CDC1;" d="M88.157,17.914v14.4v16v193.6l129.6,30.4l-112-37.6c-5.6-1.6-9.6-7.2-9.6-12.8v-174.4
		c0-8,7.2-14.4,15.2-13.6l128.8,14.4l-14.4-4L88.157,17.914z"/>
	<path style="fill:#D9CDC1;" d="M400.157,234.714c0,3.2-2.4,6.4-5.6,7.2l-119.2,32.8l132.8-24.8v-201.6v-16v-14.4l-143.2,27.2
		l-8.8,3.2l136-15.2c4-0.8,8,3.2,8,7.2V234.714z"/>
</g>
</svg>